<svg width="7" height="11" viewBox="0 0 7 11" fill="none" xmlns="http://www.w3.org/2000/svg">
<path d="M6.25586 5.76953C6.25586 5.87109 6.23633 5.96484 6.19727 6.05078C6.1582 6.13672 6.09961 6.21875 6.02148 6.29688L1.45703 10.7617C1.32812 10.8945 1.16797 10.9609 0.976562 10.9609C0.851562 10.9609 0.736328 10.9297 0.630859 10.8672C0.525391 10.8086 0.441406 10.7266 0.378906 10.6211C0.320312 10.5195 0.291016 10.4062 0.291016 10.2812C0.291016 10.0938 0.361328 9.92773 0.501953 9.7832L4.61523 5.76953L0.501953 1.75586C0.361328 1.61133 0.291016 1.44727 0.291016 1.26367C0.291016 1.13477 0.320312 1.01953 0.378906 0.917969C0.441406 0.816406 0.525391 0.736328 0.630859 0.677734C0.736328 0.615234 0.851562 0.583984 0.976562 0.583984C1.16797 0.583984 1.32812 0.648438 1.45703 0.777344L6.02148 5.24219C6.09961 5.32031 6.1582 5.40234 6.19727 5.48828C6.23633 5.57422 6.25586 5.66797 6.25586 5.76953Z" fill="#3C3C43" fill-opacity="0.6" style="fill:#3C3C43;fill:color(display-p3 0.2353 0.2353 0.2627);fill-opacity:0.6;"/>
</svg>
