<svg width="46" height="46" viewBox="0 0 46 46" fill="none" xmlns="http://www.w3.org/2000/svg">
<circle cx="23" cy="23" r="23" fill="black" style="fill:black;fill-opacity:1;"/>
<g clip-path="url(#clip0_1_353)">
<path d="M34.1387 20.6395C34.4294 19.764 34.53 18.8366 34.4336 17.9192C34.3373 17.0018 34.0463 16.1154 33.5801 15.3195C32.8889 14.1163 31.8334 13.1638 30.566 12.5992C29.2985 12.0345 27.8845 11.887 26.5278 12.1778C25.757 11.3204 24.7742 10.6809 23.678 10.3236C22.5819 9.96623 21.411 9.9036 20.283 10.142C19.155 10.3804 18.1095 10.9113 17.2517 11.6816C16.3938 12.4519 15.7538 13.4343 15.3958 14.5303C14.4919 14.7156 13.638 15.0917 12.8912 15.6335C12.1443 16.1753 11.5217 16.8702 11.0649 17.6719C10.3662 18.873 10.0676 20.2652 10.2122 21.6473C10.3569 23.0293 10.9373 24.3295 11.8695 25.3599C11.5777 26.235 11.4762 27.1622 11.5717 28.0797C11.6671 28.9971 11.9574 29.8836 12.4231 30.6798C13.1152 31.8834 14.1715 32.8362 15.4399 33.4008C16.7082 33.9654 18.1231 34.1128 19.4806 33.8216C20.0929 34.5112 20.8454 35.0622 21.6877 35.4379C22.5299 35.8135 23.4427 36.0052 24.3649 36C25.7555 36.0013 27.1105 35.5606 28.2344 34.7417C29.3583 33.9227 30.1929 32.7678 30.6177 31.4437C31.5214 31.258 32.3752 30.8818 33.122 30.34C33.8688 29.7982 34.4915 29.1034 34.9485 28.3019C35.639 27.1026 35.9325 25.7156 35.787 24.3394C35.6416 22.9631 35.0646 21.668 34.1387 20.6395ZM24.3649 34.2983C23.226 34.3001 22.1228 33.9009 21.2488 33.1707L21.4025 33.0836L26.579 30.0956C26.7079 30.02 26.8148 29.9123 26.8894 29.7829C26.964 29.6535 27.0036 29.5069 27.0044 29.3575V22.0592L29.1928 23.3252C29.2036 23.3307 29.213 23.3386 29.2201 23.3484C29.2273 23.3582 29.232 23.3696 29.2339 23.3815V29.4293C29.2312 30.7198 28.7173 31.9567 27.8048 32.8692C26.8923 33.7817 25.6554 34.2956 24.3649 34.2983ZM13.8991 29.8291C13.328 28.8428 13.1229 27.6868 13.32 26.5642L13.4738 26.6565L18.6554 29.6446C18.7836 29.7198 18.9296 29.7595 19.0782 29.7595C19.2269 29.7595 19.3728 29.7198 19.5011 29.6446L25.8308 25.9954V28.5222C25.8302 28.5353 25.8266 28.548 25.8204 28.5596C25.8142 28.5711 25.8054 28.5811 25.7948 28.5888L20.5517 31.6127C19.4327 32.2573 18.1037 32.4315 16.8564 32.0971C15.6092 31.7627 14.5455 30.947 13.8991 29.8291ZM12.5359 18.5535C13.111 17.561 14.0188 16.8039 15.0985 16.4163V22.5666C15.0965 22.7152 15.1345 22.8616 15.2084 22.9905C15.2823 23.1194 15.3895 23.2261 15.5187 23.2995L21.8177 26.9333L19.6292 28.1992C19.6174 28.2055 19.6042 28.2088 19.5908 28.2088C19.5773 28.2088 19.5641 28.2055 19.5523 28.1992L14.3195 25.1805C13.2026 24.5331 12.3878 23.4695 12.0535 22.2227C11.7192 20.9758 11.8927 19.6472 12.5359 18.528V18.5535ZM30.5152 22.7307L24.1958 19.061L26.3791 17.8C26.391 17.7937 26.4042 17.7904 26.4176 17.7904C26.431 17.7904 26.4442 17.7937 26.4561 17.8L31.6889 20.8239C32.489 21.2855 33.1412 21.9653 33.5695 22.7837C33.9978 23.6022 34.1844 24.5256 34.1075 25.4461C34.0307 26.3667 33.6936 27.2464 33.1355 27.9825C32.5775 28.7186 31.8216 29.2808 30.956 29.6034V23.4531C30.9515 23.3048 30.9084 23.1602 30.8311 23.0335C30.7538 22.9068 30.645 22.8025 30.5152 22.7307ZM32.6935 19.4556L32.5396 19.3633L27.3683 16.3497C27.2393 16.274 27.0925 16.2341 26.9429 16.2341C26.7933 16.2341 26.6465 16.274 26.5175 16.3497L20.1931 19.9988V17.4722C20.1917 17.4593 20.1939 17.4463 20.1993 17.4346C20.2047 17.4229 20.2132 17.4128 20.2239 17.4055L25.4567 14.3867C26.2587 13.9247 27.1757 13.7006 28.1004 13.7406C29.0251 13.7806 29.9193 14.083 30.6784 14.6126C31.4375 15.1421 32.0301 15.8769 32.387 16.7309C32.7439 17.5849 32.8502 18.5228 32.6936 19.435L32.6935 19.4556ZM18.9987 23.9349L16.8104 22.6741C16.7994 22.6675 16.7901 22.6586 16.783 22.648C16.7758 22.6374 16.7711 22.6253 16.7692 22.6127V16.5804C16.7704 15.6549 17.035 14.749 17.5322 13.9684C18.0293 13.1879 18.7383 12.565 19.5764 12.1725C20.4145 11.7801 21.347 11.6344 22.2648 11.7524C23.1827 11.8703 24.048 12.2472 24.7596 12.8388L24.6057 12.9261L19.4293 15.9139C19.3005 15.9895 19.1935 16.0972 19.119 16.2266C19.0444 16.356 19.0047 16.5026 19.0039 16.652L18.9987 23.9349ZM20.1878 21.3724L23.0066 19.7476L25.8308 21.3724V24.6217L23.0169 26.2464L20.193 24.6217L20.1878 21.3724Z" fill="white" style="fill:white;fill-opacity:1;"/>
</g>
<defs>
<clipPath id="clip0_1_353">
<rect width="26" height="26" fill="white" style="fill:white;fill-opacity:1;" transform="translate(10 10)"/>
</clipPath>
</defs>
</svg>
