<svg width="20" height="20" viewBox="0 0 20 20" fill="none" xmlns="http://www.w3.org/2000/svg">
<path fill-rule="evenodd" clip-rule="evenodd" d="M10 0.833374C8.15905 0.833374 6.66667 2.32576 6.66667 4.16671V10C6.66667 11.841 8.15905 13.3334 10 13.3334C11.841 13.3334 13.3333 11.841 13.3333 10V4.16671C13.3333 2.32576 11.841 0.833374 10 0.833374Z" fill="#3C3C43" fill-opacity="0.6" style="fill:#3C3C43;fill:color(display-p3 0.2353 0.2353 0.2627);fill-opacity:0.6;"/>
<path d="M5 8.33337C5 7.87314 4.62691 7.50004 4.16667 7.50004C3.70643 7.50004 3.33334 7.87314 3.33334 8.33337V10C3.33334 13.4003 5.87888 16.2059 9.16823 16.6153C9.1672 16.6323 9.16667 16.6494 9.16667 16.6667V17.5H6.66667C6.20643 17.5 5.83334 17.8731 5.83334 18.3334C5.83334 18.7936 6.20643 19.1667 6.66667 19.1667H13.3333C13.7936 19.1667 14.1667 18.7936 14.1667 18.3334C14.1667 17.8731 13.7936 17.5 13.3333 17.5H10.8333V16.6667C10.8333 16.6494 10.8328 16.6323 10.8318 16.6153C14.1211 16.2059 16.6667 13.4003 16.6667 10V8.33337C16.6667 7.87314 16.2936 7.50004 15.8333 7.50004C15.3731 7.50004 15 7.87314 15 8.33337V10C15 12.7615 12.7614 15 10 15C7.23858 15 5 12.7615 5 10V8.33337Z" fill="#3C3C43" fill-opacity="0.6" style="fill:#3C3C43;fill:color(display-p3 0.2353 0.2353 0.2627);fill-opacity:0.6;"/>
</svg>
